<?xml version="1.0" encoding="UTF-8" standalone="no"?>
<svg
   version="1.1"
   id="Layer_1"
   x="0px"
   y="0px"
   width="423px"
   height="612px"
   viewBox="0 0 423 612"
   enable-background="new 0 0 423 612"
   xml:space="preserve"
   sodipodi:docname="3page_K5.svg"
   inkscape:version="1.3.2 (091e20e, 2023-11-25, custom)"
   xmlns:inkscape="http://www.inkscape.org/namespaces/inkscape"
   xmlns:sodipodi="http://sodipodi.sourceforge.net/DTD/sodipodi-0.dtd"
   xmlns="http://www.w3.org/2000/svg"
   xmlns:svg="http://www.w3.org/2000/svg"><defs
   id="defs24" /><sodipodi:namedview
   id="namedview24"
   pagecolor="#ffffff"
   bordercolor="#000000"
   borderopacity="0.25"
   inkscape:showpageshadow="2"
   inkscape:pageopacity="0.0"
   inkscape:pagecheckerboard="0"
   inkscape:deskcolor="#d1d1d1"
   inkscape:zoom="2.0245098"
   inkscape:cx="211.4092"
   inkscape:cy="306"
   inkscape:window-width="3440"
   inkscape:window-height="1417"
   inkscape:window-x="3832"
   inkscape:window-y="112"
   inkscape:window-maximized="1"
   inkscape:current-layer="Layer_1" />
<polygon
   opacity="0.7"
   fill="#FAF8FA"
   points="406.8,12.877 406.8,372.876 234,458.999 17.533,458.999 17.533,98.999 234,98.999 "
   id="polygon1" />
<path
   fill="none"
   stroke="#0081CD"
   stroke-width="3"
   stroke-miterlimit="10"
   d="M234,278.999  c47.718-23.782,86.399-75.297,86.399-115.061c0-39.766-38.682-52.722-86.399-28.939"
   id="path1" />
<path
   fill="none"
   stroke="#0081CD"
   stroke-width="3"
   stroke-miterlimit="10"
   d="M234,134.999  c71.575-35.674,129.601-16.239,129.601,43.408c0,59.646-58.025,136.919-129.601,172.592"
   id="path2" />
<polyline
   opacity="0.7"
   fill="#FAF8FA"
   points="234,459 378,603 378,243 234,99 "
   id="polyline2" />
<path
   fill="none"
   stroke="#009246"
   stroke-width="3"
   stroke-miterlimit="10"
   d="M234,206.999c-22.865,0-41.4-16.118-41.4-36  s18.535-36,41.4-36"
   id="path3" />
<path
   fill="none"
   stroke="#009246"
   stroke-width="3"
   stroke-miterlimit="10"
   d="M234,206.999c-22.865,0-41.4,16.118-41.4,36  c0,19.882,18.535,36,41.4,36"
   id="path4" />
<path
   fill="none"
   stroke="#009246"
   stroke-width="3"
   stroke-miterlimit="10"
   d="M234,278.999c-22.865,0-41.4,16.118-41.4,36  s18.535,36,41.4,36"
   id="path5" />
<path
   fill="none"
   stroke="#009246"
   stroke-width="3"
   stroke-miterlimit="10"
   d="M234,206.999c-45.73,0-82.801,32.236-82.801,72  s37.07,72,82.801,72"
   id="path6" />
<path
   fill="none"
   stroke="#009246"
   stroke-width="3"
   stroke-miterlimit="10"
   d="M234,350.999c-22.865,0-41.4,16.118-41.4,36  s18.535,36,41.4,36"
   id="path7" />
<path
   fill="none"
   stroke="#009246"
   stroke-width="3"
   stroke-miterlimit="10"
   d="M234,134.999c-91.458,0-165.601,64.471-165.601,144  c0,79.529,74.143,144,165.601,144"
   id="path8" />
<path
   fill="none"
   stroke="#BC1E47"
   stroke-width="3"
   stroke-miterlimit="10"
   d="M234,278.999  c39.765,39.764,71.999,104.234,71.999,144c0,39.764-32.234,39.764-71.999,0"
   id="path9" />
<path
   fill="none"
   stroke="#BC1E47"
   stroke-width="3"
   stroke-miterlimit="10"
   d="M234,422.999  c59.647,59.646,107.999,59.646,107.999,0s-48.352-156.354-107.999-216"
   id="path10" />
<g
   id="g13">
	<g
   id="g12">
		<line
   fill="none"
   stroke="#000000"
   stroke-width="3"
   stroke-miterlimit="10"
   x1="234"
   y1="63"
   x2="234"
   y2="65"
   id="line10" />
			<line
   fill="none"
   stroke="#000000"
   stroke-width="3"
   stroke-miterlimit="10"
   stroke-dasharray="4,4"
   x1="234"
   y1="69"
   x2="234"
   y2="490.999"
   id="line11" />
		<line
   fill="none"
   stroke="#000000"
   stroke-width="3"
   stroke-miterlimit="10"
   x1="234"
   y1="492.999"
   x2="234"
   y2="494.999"
   id="line12" />
	</g>
</g>
<polyline
   fill="none"
   stroke="#0081CD"
   stroke-miterlimit="10"
   stroke-dasharray="2"
   points="234,98.999 406.8,12.877  406.8,372.876 234,458.999 "
   id="polyline13" />
<polyline
   fill="none"
   stroke="#009246"
   stroke-miterlimit="10"
   stroke-dasharray="2"
   points="234,98.999 18,98.999 18,458.999  234,458.999 "
   id="polyline14" />
<polyline
   fill="none"
   stroke="#BC1E47"
   stroke-miterlimit="10"
   stroke-dasharray="2"
   points="234,458.999 378,602.999 378,242.999  234,98.999 "
   id="polyline15" />
<radialGradient
   id="SVGID_1_"
   cx="234"
   cy="134.9995"
   r="9"
   gradientUnits="userSpaceOnUse">
	<stop
   offset="0"
   style="stop-color:#FFFFFF"
   id="stop15" />
	<stop
   offset="1"
   style="stop-color:#00ff00;stop-opacity:1;"
   id="stop16" />
</radialGradient>
<circle
   fill="url(#SVGID_1_)"
   stroke="#231F20"
   stroke-miterlimit="10"
   cx="234"
   cy="135"
   r="9"
   id="circle16" />
<radialGradient
   id="SVGID_2_"
   cx="234"
   cy="206.9995"
   r="9"
   gradientUnits="userSpaceOnUse">
	<stop
   offset="0"
   style="stop-color:#FFFFFF"
   id="stop17" />
	<stop
   offset="1"
   style="stop-color:#00ff00;stop-opacity:1;"
   id="stop18" />
</radialGradient>
<circle
   fill="url(#SVGID_2_)"
   stroke="#231F20"
   stroke-miterlimit="10"
   cx="234"
   cy="207"
   r="9"
   id="circle18" />
<radialGradient
   id="SVGID_3_"
   cx="234"
   cy="278.999"
   r="9"
   gradientUnits="userSpaceOnUse">
	<stop
   offset="0"
   style="stop-color:#FFFFFF"
   id="stop19" />
	<stop
   offset="1"
   style="stop-color:#00ff00;stop-opacity:1;"
   id="stop20" />
</radialGradient>
<circle
   fill="url(#SVGID_3_)"
   stroke="#231F20"
   stroke-miterlimit="10"
   cx="234"
   cy="278.999"
   r="9"
   id="circle20" />
<radialGradient
   id="SVGID_4_"
   cx="234"
   cy="350.999"
   r="9"
   gradientUnits="userSpaceOnUse">
	<stop
   offset="0"
   style="stop-color:#FFFFFF"
   id="stop21" />
	<stop
   offset="1"
   style="stop-color:#00ff00;stop-opacity:1;"
   id="stop22" />
</radialGradient>
<circle
   fill="url(#SVGID_4_)"
   stroke="#231F20"
   stroke-miterlimit="10"
   cx="234"
   cy="350.999"
   r="9"
   id="circle22" />
<radialGradient
   id="SVGID_5_"
   cx="234"
   cy="422.999"
   r="9"
   gradientUnits="userSpaceOnUse">
	<stop
   offset="0"
   style="stop-color:#FFFFFF"
   id="stop23" />
	<stop
   offset="1"
   style="stop-color:#00ff00;stop-opacity:1;"
   id="stop24" />
</radialGradient>
<circle
   fill="url(#SVGID_5_)"
   stroke="#231F20"
   stroke-miterlimit="10"
   cx="234"
   cy="422.999"
   r="9"
   id="circle24" />
</svg>
