<?xml version="1.0" encoding="UTF-8" standalone="no"?>
<!-- Created with Inkscape (http://www.inkscape.org/) -->

<svg
   width="210mm"
   height="297mm"
   viewBox="0 0 210 297"
   version="1.1"
   id="svg1"
   inkscape:version="1.4-rc1 (61ec3f2, 2024-09-26)"
   sodipodi:docname="pairwise nesting.svg"
   xmlns:inkscape="http://www.inkscape.org/namespaces/inkscape"
   xmlns:sodipodi="http://sodipodi.sourceforge.net/DTD/sodipodi-0.dtd"
   xmlns="http://www.w3.org/2000/svg"
   xmlns:svg="http://www.w3.org/2000/svg">
  <sodipodi:namedview
     id="namedview1"
     pagecolor="#505050"
     bordercolor="#eeeeee"
     borderopacity="1"
     inkscape:showpageshadow="0"
     inkscape:pageopacity="0"
     inkscape:pagecheckerboard="0"
     inkscape:deskcolor="#505050"
     inkscape:document-units="mm"
     inkscape:zoom="2.1647727"
     inkscape:cx="327.05512"
     inkscape:cy="265.38583"
     inkscape:window-width="3440"
     inkscape:window-height="1417"
     inkscape:window-x="3832"
     inkscape:window-y="112"
     inkscape:window-maximized="1"
     inkscape:current-layer="layer2" />
  <defs
     id="defs1">
    <inkscape:path-effect
       effect="bspline"
       id="path-effect3"
       is_visible="true"
       lpeversion="1.3"
       weight="33.333333"
       steps="2"
       helper_size="0"
       apply_no_weight="true"
       apply_with_weight="true"
       only_selected="false"
       uniform="false" />
    <inkscape:path-effect
       effect="bspline"
       id="path-effect2"
       is_visible="true"
       lpeversion="1.3"
       weight="33.333333"
       steps="2"
       helper_size="0"
       apply_no_weight="true"
       apply_with_weight="true"
       only_selected="false"
       uniform="false" />
    <inkscape:path-effect
       effect="bspline"
       id="path-effect2-4"
       is_visible="true"
       lpeversion="1.3"
       weight="33.333333"
       steps="2"
       helper_size="0"
       apply_no_weight="true"
       apply_with_weight="true"
       only_selected="false"
       uniform="false" />
    <inkscape:path-effect
       effect="bspline"
       id="path-effect3-8"
       is_visible="true"
       lpeversion="1.3"
       weight="33.333333"
       steps="2"
       helper_size="0"
       apply_no_weight="true"
       apply_with_weight="true"
       only_selected="false"
       uniform="false" />
  </defs>
  <g
     inkscape:label="Layer 1"
     inkscape:groupmode="layer"
     id="layer1">
    <path
       style="fill:none;stroke:#000000;stroke-width:0.352777;stroke-linejoin:bevel;stroke-opacity:0.922481"
       d="m 47.3,180.44074 c -9.981482,-11.12222 -12.262964,-32.47037 -6.396158,-48.15566 5.866806,-15.68528 19.88134,-25.7073 25.422053,-37.603737 5.540712,-11.896434 2.607437,-25.66653 8.922407,-32.755422 6.31497,-7.088892 21.877622,-7.496292 27.744248,0.733506 5.86663,8.229798 2.03708,25.096127 4.88903,39.518473 2.85194,14.42234 12.38508,26.39987 10.95903,41.18894 -1.42605,14.78907 -13.81098,32.38871 -28.844491,40.74055 -15.03351,8.35185 -32.714638,7.45557 -42.696119,-3.66665 z"
       id="path2"
       inkscape:path-effect="#path-effect2"
       inkscape:original-d="m 39.599999,190.66666 c -2.281481,-21.34814 -4.562962,-42.69629 -6.844445,-64.04444 14.015095,-10.02242 28.02963,-20.04444 42.044445,-30.066667 -2.933391,-13.770644 -5.866667,-27.54074 -8.8,-41.311109 15.563273,-0.407416 31.125925,-0.814814 46.688891,-1.222222 -3.82971,16.867002 -7.65926,33.733332 -11.48889,50.599998 9.53352,11.97802 19.06666,23.95555 28.6,35.93333 -12.38543,17.60036 -24.77037,35.2 -37.155557,52.8 -17.681834,-0.89631 -35.362962,-1.79259 -53.044444,-2.68889 z"
       transform="matrix(0.52685709,0,0,0.52685709,7.9804037,-0.25002276)" />
    <path
       style="fill:none;stroke:none;stroke-width:0.352777;stroke-linejoin:bevel;stroke-opacity:0.922481"
       d="m 47.299998,180.44074 c 12.588891,-0.17654 25.177779,-0.35309 37.101327,-6.53219 11.923548,-6.17911 23.181305,-18.36029 34.439285,-30.54172"
       id="path3"
       inkscape:path-effect="#path-effect3"
       inkscape:original-d="m 47.299998,180.44074 c 12.588891,-0.17655 25.177779,-0.35309 37.766667,-0.52963 11.258209,-12.18167 22.515965,-24.36285 33.773945,-36.54428"
       transform="matrix(0.52685709,0,0,0.52685709,7.9804037,-0.25002276)" />
    <path
       style="fill:#784421;stroke:#000000;stroke-width:0.185863;stroke-linejoin:bevel;stroke-opacity:0.922481"
       d="m 54.0732,29.572772 9.15695,-8.31532 0.90151,0.51515 z"
       id="path4" />
    <path
       style="fill:#55d400;stroke:#000000;stroke-width:0.162963;stroke-linejoin:bevel;stroke-opacity:0.922481"
       d="m 32.54293,94.141665 c -1.56658,-1.912887 -2.916608,-4.797631 -3.70527,-7.917431 -0.610137,-2.413585 -0.720593,-3.490034 -0.720757,-7.024235 -1.72e-4,-3.696751 0.17445,-5.112171 0.972582,-7.883332 1.206902,-4.190447 3.079033,-7.274753 8.102182,-13.348208 2.646193,-3.199495 3.477876,-4.278074 4.476898,-5.805921 1.841153,-2.815749 2.670471,-5.305587 3.309085,-9.93476 0.534292,-3.872947 0.682393,-4.796804 0.930685,-5.805557 0.721392,-2.930839 1.904085,-4.518157 4.186905,-5.619324 1.303186,-0.62862 2.190586,-0.874686 3.728085,-1.033753 3.92222,-0.405789 7.401956,1.190498 8.801245,4.037467 1.030708,2.097061 1.214594,3.469828 1.359395,10.148348 0.1984,9.150546 0.466513,10.531925 3.545001,18.26464 2.288365,5.748049 2.795066,7.649734 2.896095,10.869289 l 0.0652,2.077779 -1.933609,2.077778 c -12.718272,13.666538 -18.122699,16.6991 -30.817685,17.292592 -1.396434,0.06528 -3.041094,0.119907 -3.654801,0.121386 l -1.115832,0.0027 z"
       id="path5" />
    <path
       style="fill:#338000;stroke:none;stroke-width:0.162963;stroke-linejoin:bevel;stroke-opacity:0.922481"
       d="M 42.453301,99.410768 C 39.324529,99.05207 36.159109,97.656705 34.116293,95.735687 l -0.87185,-0.819867 2.016668,-0.007 c 7.456823,-0.02595 13.00127,-1.142574 17.469786,-3.51827 4.557406,-2.422954 8.574434,-5.929778 16.555397,-14.452687 l 1.086297,-1.16006 -0.08987,0.61111 c -0.490246,3.333853 -2.482654,7.74446 -5.099044,11.287792 -6.067822,8.217543 -14.669884,12.658175 -22.73038,11.734088 z"
       id="path6" />
    <path
       style="fill:none;stroke:#000000;stroke-width:0.352777;stroke-linejoin:bevel;stroke-opacity:0.922481"
       d="m 47.3,180.44074 c -9.981482,-11.12222 -12.262964,-32.47037 -6.396158,-48.15566 5.866806,-15.68528 19.88134,-25.7073 25.422053,-37.603737 5.540712,-11.896434 2.607437,-25.66653 8.922407,-32.755422 6.31497,-7.088892 21.877622,-7.496292 27.744248,0.733506 5.86663,8.229798 2.03708,25.096127 4.88903,39.518473 2.85194,14.42234 12.38508,26.39987 10.95903,41.18894 -1.42605,14.78907 -13.81098,32.38871 -28.844491,40.74055 -15.03351,8.35185 -32.714638,7.45557 -42.696119,-3.66665 z"
       id="path2-2"
       inkscape:path-effect="#path-effect2-4"
       inkscape:original-d="m 39.599999,190.66666 c -2.281481,-21.34814 -4.562962,-42.69629 -6.844445,-64.04444 14.015095,-10.02242 28.02963,-20.04444 42.044445,-30.066667 -2.933391,-13.770644 -5.866667,-27.54074 -8.8,-41.311109 15.563273,-0.407416 31.125925,-0.814814 46.688891,-1.222222 -3.82971,16.867002 -7.65926,33.733332 -11.48889,50.599998 9.53352,11.97802 19.06666,23.95555 28.6,35.93333 -12.38543,17.60036 -24.77037,35.2 -37.155557,52.8 -17.681834,-0.89631 -35.362962,-1.79259 -53.044444,-2.68889 z"
       transform="matrix(0.52685709,0,0,0.52685709,39.93552,-0.25002221)" />
    <path
       style="fill:none;stroke:none;stroke-width:0.352777;stroke-linejoin:bevel;stroke-opacity:0.922481"
       d="m 47.299998,180.44074 c 12.588891,-0.17654 25.177779,-0.35309 37.101327,-6.53219 11.923548,-6.17911 23.181305,-18.36029 34.439285,-30.54172"
       id="path3-4"
       inkscape:path-effect="#path-effect3-8"
       inkscape:original-d="m 47.299998,180.44074 c 12.588891,-0.17655 25.177779,-0.35309 37.766667,-0.52963 11.258209,-12.18167 22.515965,-24.36285 33.773945,-36.54428"
       transform="matrix(0.52685709,0,0,0.52685709,39.93552,-0.25002221)" />
    <path
       style="fill:#784421;stroke:#000000;stroke-width:0.185863;stroke-linejoin:bevel;stroke-opacity:0.922481"
       d="m 86.028314,29.572772 9.15695,-8.31532 0.90151,0.51515 z"
       id="path4-5" />
    <path
       style="fill:#55d400;stroke:#000000;stroke-width:0.162963;stroke-linejoin:bevel;stroke-opacity:0.922481"
       d="m 64.498046,94.141665 c -1.56658,-1.912887 -2.916608,-4.797631 -3.70527,-7.917431 -0.610137,-2.413585 -0.720593,-3.490034 -0.720757,-7.024235 -1.72e-4,-3.696751 0.17445,-5.112171 0.972582,-7.883332 1.206902,-4.190447 3.079033,-7.274753 8.102182,-13.348208 2.646193,-3.199495 3.477873,-4.278074 4.476893,-5.805921 1.84116,-2.815749 2.67048,-5.305587 3.30909,-9.93476 0.53429,-3.872947 0.68239,-4.796804 0.93068,-5.805557 0.7214,-2.930839 1.90409,-4.518157 4.18691,-5.619324 1.303188,-0.62862 2.190588,-0.874686 3.728078,-1.033753 3.92222,-0.405789 7.40196,1.190498 8.80125,4.037467 1.03071,2.097061 1.2146,3.469828 1.3594,10.148348 0.1984,9.150546 0.46651,10.531925 3.545,18.26464 2.288366,5.748049 2.795066,7.649734 2.896096,10.869289 l 0.0652,2.077779 -1.93361,2.077778 c -12.718276,13.666538 -18.122704,16.6991 -30.817687,17.292592 -1.396434,0.06528 -3.041094,0.119907 -3.654801,0.121386 l -1.115832,0.0027 z"
       id="path5-5" />
    <path
       style="fill:#338000;stroke:none;stroke-width:0.162963;stroke-linejoin:bevel;stroke-opacity:0.922481"
       d="M 74.408416,99.410768 C 71.279645,99.05207 68.114225,97.656705 66.071409,95.735687 l -0.87185,-0.819867 2.016668,-0.007 c 7.456819,-0.02595 13.001269,-1.142574 17.469787,-3.51827 4.5574,-2.422954 8.57443,-5.929778 16.555396,-14.452687 l 1.0863,-1.16006 -0.0899,0.61111 c -0.49024,3.333853 -2.482646,7.74446 -5.099036,11.287792 -6.06783,8.217543 -14.669888,12.658165 -22.730378,11.734088 z"
       id="path6-1" />
  </g>
  <g
     inkscape:groupmode="layer"
     id="layer2"
     inkscape:label="Layer 2" />
</svg>
